<svg xmlns="http://www.w3.org/2000/svg" xmlns:xlink="http://www.w3.org/1999/xlink" width="500" zoomAndPan="magnify" viewBox="0 0 375 374.999991" height="500" preserveAspectRatio="xMidYMid meet" version="1.0"><defs><g/><clipPath id="3651a94b2b"><path d="M 170.839844 156.128906 L 370.558594 156.128906 L 370.558594 218.863281 L 170.839844 218.863281 Z M 170.839844 156.128906 " clip-rule="nonzero"/></clipPath><clipPath id="c289abf7ca"><path d="M 214.078125 156.128906 L 364.5 156.128906 C 366.648438 156.128906 368.636719 157.28125 369.699219 159.148438 C 370.765625 161.019531 370.746094 163.3125 369.648438 165.164062 L 343.199219 209.828125 C 339.882812 215.429688 333.859375 218.863281 327.351562 218.863281 L 176.929688 218.863281 C 174.777344 218.863281 172.792969 217.710938 171.730469 215.839844 C 170.664062 213.972656 170.683594 211.679688 171.78125 209.828125 L 198.230469 165.164062 C 201.546875 159.5625 207.570312 156.128906 214.078125 156.128906 Z M 214.078125 156.128906 " clip-rule="nonzero"/></clipPath></defs><g clip-path="url(#3651a94b2b)"><g clip-path="url(#c289abf7ca)"><path fill="#38966f" d="M 166.429688 156.128906 L 374.96875 156.128906 L 374.96875 218.863281 L 166.429688 218.863281 Z M 166.429688 156.128906 " fill-opacity="1" fill-rule="nonzero"/></g></g><g fill="#38966f" fill-opacity="1"><g transform="translate(0.0000045, 208.303967)"><g><path d="M 33.8125 -30.953125 L 14.046875 -7.453125 L 34.125 -7.453125 L 34.125 0 L 1.484375 0 L 1.484375 -6.015625 L 21.296875 -29.53125 L 2.171875 -29.53125 L 2.171875 -36.984375 L 33.8125 -36.984375 Z M 33.8125 -30.953125 "/></g></g></g><g fill="#38966f" fill-opacity="1"><g transform="translate(32.648798, 208.303967)"><g><path d="M 16.859375 -28.796875 C 21.503906 -28.796875 25.253906 -27.460938 28.109375 -24.796875 C 30.960938 -22.140625 32.390625 -18.628906 32.390625 -14.265625 C 32.390625 -9.898438 30.960938 -6.378906 28.109375 -3.703125 C 25.253906 -1.023438 21.503906 0.3125 16.859375 0.3125 C 12.171875 0.3125 8.398438 -1.023438 5.546875 -3.703125 C 2.691406 -6.378906 1.265625 -9.898438 1.265625 -14.265625 C 1.265625 -18.628906 2.691406 -22.140625 5.546875 -24.796875 C 8.398438 -27.460938 12.171875 -28.796875 16.859375 -28.796875 Z M 16.859375 -21.546875 C 14.953125 -21.546875 13.40625 -20.859375 12.21875 -19.484375 C 11.039062 -18.117188 10.453125 -16.34375 10.453125 -14.15625 C 10.453125 -11.9375 11.039062 -10.148438 12.21875 -8.796875 C 13.40625 -7.441406 14.953125 -6.765625 16.859375 -6.765625 C 18.722656 -6.765625 20.242188 -7.441406 21.421875 -8.796875 C 22.597656 -10.148438 23.1875 -11.9375 23.1875 -14.15625 C 23.1875 -16.34375 22.597656 -18.117188 21.421875 -19.484375 C 20.242188 -20.859375 18.722656 -21.546875 16.859375 -21.546875 Z M 16.859375 -21.546875 "/></g></g></g><g fill="#38966f" fill-opacity="1"><g transform="translate(63.290033, 208.303967)"><g><path d="M 22.609375 -28.890625 C 25.742188 -28.890625 28.257812 -27.894531 30.15625 -25.90625 C 32.0625 -23.914062 33.015625 -21.269531 33.015625 -17.96875 L 33.015625 0 L 23.875 0 L 23.875 -15.421875 C 23.875 -17.078125 23.425781 -18.390625 22.53125 -19.359375 C 21.632812 -20.328125 20.410156 -20.8125 18.859375 -20.8125 C 17.097656 -20.8125 15.6875 -20.175781 14.625 -18.90625 C 13.570312 -17.644531 13.046875 -16.023438 13.046875 -14.046875 L 13.046875 0 L 3.90625 0 L 3.90625 -39.203125 L 13.046875 -39.203125 L 13.046875 -23.765625 C 15.054688 -27.117188 18.242188 -28.828125 22.609375 -28.890625 Z M 22.609375 -28.890625 "/></g></g></g><g fill="#38966f" fill-opacity="1"><g transform="translate(96.097303, 208.303967)"><g><path d="M 16.421875 -28.890625 C 20.335938 -28.890625 23.378906 -27.984375 25.546875 -26.171875 C 27.710938 -24.359375 28.8125 -21.832031 28.84375 -18.59375 L 28.84375 0 L 19.921875 0 L 19.921875 -3.28125 C 18.046875 -0.8125 15.140625 0.421875 11.203125 0.421875 C 8.203125 0.421875 5.820312 -0.40625 4.0625 -2.0625 C 2.300781 -3.71875 1.421875 -5.863281 1.421875 -8.5 C 1.421875 -11.21875 2.363281 -13.320312 4.25 -14.8125 C 6.132812 -16.3125 8.835938 -17.078125 12.359375 -17.109375 L 19.859375 -17.109375 L 19.859375 -17.53125 C 19.859375 -18.945312 19.390625 -20.050781 18.453125 -20.84375 C 17.523438 -21.632812 16.144531 -22.03125 14.3125 -22.03125 C 11.738281 -22.03125 8.90625 -21.238281 5.8125 -19.65625 L 3.21875 -25.671875 C 7.832031 -27.816406 12.234375 -28.890625 16.421875 -28.890625 Z M 14 -5.765625 C 15.445312 -5.765625 16.710938 -6.125 17.796875 -6.84375 C 18.890625 -7.5625 19.578125 -8.503906 19.859375 -9.671875 L 19.859375 -12.203125 L 14.109375 -12.203125 C 11.359375 -12.203125 9.984375 -11.179688 9.984375 -9.140625 C 9.984375 -8.078125 10.332031 -7.25 11.03125 -6.65625 C 11.738281 -6.0625 12.726562 -5.765625 14 -5.765625 Z M 14 -5.765625 "/></g></g></g><g fill="#38966f" fill-opacity="1"><g transform="translate(124.783825, 208.303967)"><g><path d="M 4.78125 -40.125 C 5.675781 -41.019531 6.828125 -41.46875 8.234375 -41.46875 C 9.648438 -41.46875 10.804688 -41.019531 11.703125 -40.125 C 12.597656 -39.226562 13.046875 -38.070312 13.046875 -36.65625 C 13.046875 -35.25 12.597656 -34.085938 11.703125 -33.171875 C 10.804688 -32.253906 9.648438 -31.796875 8.234375 -31.796875 C 6.828125 -31.796875 5.675781 -32.253906 4.78125 -33.171875 C 3.882812 -34.085938 3.4375 -35.25 3.4375 -36.65625 C 3.4375 -38.070312 3.882812 -39.226562 4.78125 -40.125 Z M 12.734375 0 L 3.640625 0 L 3.640625 -28.46875 L 12.734375 -28.46875 Z M 12.734375 0 "/></g></g></g><g fill="#38966f" fill-opacity="1"><g transform="translate(138.202407, 208.303967)"><g><path d="M 21.546875 -28.796875 C 25.566406 -28.796875 28.800781 -27.445312 31.25 -24.75 C 33.695312 -22.050781 34.921875 -18.503906 34.921875 -14.109375 C 34.921875 -9.773438 33.722656 -6.285156 31.328125 -3.640625 C 28.929688 -1.003906 25.742188 0.3125 21.765625 0.3125 C 18.035156 0.3125 15.128906 -1.054688 13.046875 -3.796875 L 13.046875 0 L 3.90625 0 L 3.90625 -39.203125 L 13.046875 -39.203125 L 13.046875 -24.71875 C 15.160156 -27.4375 17.992188 -28.796875 21.546875 -28.796875 Z M 19.328125 -6.921875 C 21.234375 -6.921875 22.773438 -7.613281 23.953125 -9 C 25.140625 -10.394531 25.734375 -12.179688 25.734375 -14.359375 C 25.734375 -16.546875 25.140625 -18.328125 23.953125 -19.703125 C 22.773438 -21.078125 21.234375 -21.765625 19.328125 -21.765625 C 17.503906 -21.765625 16 -21.078125 14.8125 -19.703125 C 13.632812 -18.328125 13.046875 -16.550781 13.046875 -14.375 C 13.046875 -12.15625 13.625 -10.359375 14.78125 -8.984375 C 15.945312 -7.609375 17.460938 -6.921875 19.328125 -6.921875 Z M 19.328125 -6.921875 "/></g></g></g><g fill="#ffffff" fill-opacity="1"><g transform="translate(181.277688, 208.303967)"><g/></g></g><g fill="#ffffff" fill-opacity="1"><g transform="translate(190.522678, 208.303967)"><g/></g></g><g fill="#ffffff" fill-opacity="1"><g transform="translate(199.775266, 208.303967)"><g><path d="M 22.765625 -11.9375 L 22.765625 0 L 13.421875 0 L 13.421875 -11.671875 L -0.265625 -36.984375 L 9.140625 -36.984375 L 18.0625 -20.859375 L 26.78125 -36.984375 L 36.1875 -36.984375 Z M 22.765625 -11.9375 "/></g></g></g><g fill="#ffffff" fill-opacity="1"><g transform="translate(232.688202, 208.303967)"><g><path d="M 16.421875 -28.890625 C 20.335938 -28.890625 23.378906 -27.984375 25.546875 -26.171875 C 27.710938 -24.359375 28.8125 -21.832031 28.84375 -18.59375 L 28.84375 0 L 19.921875 0 L 19.921875 -3.28125 C 18.046875 -0.8125 15.140625 0.421875 11.203125 0.421875 C 8.203125 0.421875 5.820312 -0.40625 4.0625 -2.0625 C 2.300781 -3.71875 1.421875 -5.863281 1.421875 -8.5 C 1.421875 -11.21875 2.363281 -13.320312 4.25 -14.8125 C 6.132812 -16.3125 8.835938 -17.078125 12.359375 -17.109375 L 19.859375 -17.109375 L 19.859375 -17.53125 C 19.859375 -18.945312 19.390625 -20.050781 18.453125 -20.84375 C 17.523438 -21.632812 16.144531 -22.03125 14.3125 -22.03125 C 11.738281 -22.03125 8.90625 -21.238281 5.8125 -19.65625 L 3.21875 -25.671875 C 7.832031 -27.816406 12.234375 -28.890625 16.421875 -28.890625 Z M 14 -5.765625 C 15.445312 -5.765625 16.710938 -6.125 17.796875 -6.84375 C 18.890625 -7.5625 19.578125 -8.503906 19.859375 -9.671875 L 19.859375 -12.203125 L 14.109375 -12.203125 C 11.359375 -12.203125 9.984375 -11.179688 9.984375 -9.140625 C 9.984375 -8.078125 10.332031 -7.25 11.03125 -6.65625 C 11.738281 -6.0625 12.726562 -5.765625 14 -5.765625 Z M 14 -5.765625 "/></g></g></g><g fill="#ffffff" fill-opacity="1"><g transform="translate(261.374728, 208.303967)"><g><path d="M 13.84375 -28.890625 C 18.03125 -28.890625 21.9375 -27.816406 25.5625 -25.671875 L 22.453125 -19.75 C 18.929688 -21.65625 15.9375 -22.609375 13.46875 -22.609375 C 11.601562 -22.609375 10.671875 -21.957031 10.671875 -20.65625 C 10.671875 -19.945312 11.179688 -19.351562 12.203125 -18.875 C 13.222656 -18.40625 14.472656 -17.976562 15.953125 -17.59375 C 17.429688 -17.207031 18.898438 -16.722656 20.359375 -16.140625 C 21.828125 -15.554688 23.070312 -14.628906 24.09375 -13.359375 C 25.113281 -12.097656 25.625 -10.550781 25.625 -8.71875 C 25.625 -5.863281 24.515625 -3.632812 22.296875 -2.03125 C 20.078125 -0.425781 17.1875 0.375 13.625 0.375 C 8.59375 0.375 4.332031 -0.960938 0.84375 -3.640625 L 3.75 -9.453125 C 7.09375 -7.097656 10.457031 -5.921875 13.84375 -5.921875 C 15.914062 -5.921875 16.953125 -6.570312 16.953125 -7.875 C 16.953125 -8.613281 16.453125 -9.226562 15.453125 -9.71875 C 14.453125 -10.207031 13.226562 -10.644531 11.78125 -11.03125 C 10.332031 -11.425781 8.882812 -11.910156 7.4375 -12.484375 C 6 -13.066406 4.773438 -13.972656 3.765625 -15.203125 C 2.765625 -16.441406 2.265625 -17.992188 2.265625 -19.859375 C 2.265625 -22.710938 3.335938 -24.929688 5.484375 -26.515625 C 7.640625 -28.097656 10.425781 -28.890625 13.84375 -28.890625 Z M 13.84375 -28.890625 "/></g></g></g><g fill="#ffffff" fill-opacity="1"><g transform="translate(285.465017, 208.303967)"><g><path d="M 4.78125 -40.125 C 5.675781 -41.019531 6.828125 -41.46875 8.234375 -41.46875 C 9.648438 -41.46875 10.804688 -41.019531 11.703125 -40.125 C 12.597656 -39.226562 13.046875 -38.070312 13.046875 -36.65625 C 13.046875 -35.25 12.597656 -34.085938 11.703125 -33.171875 C 10.804688 -32.253906 9.648438 -31.796875 8.234375 -31.796875 C 6.828125 -31.796875 5.675781 -32.253906 4.78125 -33.171875 C 3.882812 -34.085938 3.4375 -35.25 3.4375 -36.65625 C 3.4375 -38.070312 3.882812 -39.226562 4.78125 -40.125 Z M 12.734375 0 L 3.640625 0 L 3.640625 -28.46875 L 12.734375 -28.46875 Z M 12.734375 0 "/></g></g></g><g fill="#ffffff" fill-opacity="1"><g transform="translate(298.883599, 208.303967)"><g><path d="M 22.296875 -28.890625 C 25.429688 -28.890625 27.945312 -27.894531 29.84375 -25.90625 C 31.75 -23.914062 32.703125 -21.269531 32.703125 -17.96875 L 32.703125 0 L 23.609375 0 L 23.609375 -15.421875 C 23.609375 -17.078125 23.160156 -18.390625 22.265625 -19.359375 C 21.367188 -20.328125 20.144531 -20.8125 18.59375 -20.8125 C 16.976562 -20.8125 15.648438 -20.28125 14.609375 -19.21875 C 13.566406 -18.164062 12.957031 -16.78125 12.78125 -15.0625 L 12.78125 0 L 3.640625 0 L 3.640625 -28.46875 L 12.78125 -28.46875 L 12.78125 -23.828125 C 14.789062 -27.140625 17.960938 -28.828125 22.296875 -28.890625 Z M 22.296875 -28.890625 "/></g></g></g><g fill="#ffffff" fill-opacity="1"><g transform="translate(331.426726, 208.303967)"><g><path d="M 3.21875 -7.1875 C 4.03125 -8 5.085938 -8.40625 6.390625 -8.40625 C 7.691406 -8.40625 8.753906 -8 9.578125 -7.1875 C 10.410156 -6.375 10.828125 -5.316406 10.828125 -4.015625 C 10.828125 -2.710938 10.410156 -1.644531 9.578125 -0.8125 C 8.753906 0.0078125 7.691406 0.421875 6.390625 0.421875 C 5.085938 0.421875 4.03125 0.0078125 3.21875 -0.8125 C 2.40625 -1.644531 2 -2.710938 2 -4.015625 C 2 -5.316406 2.40625 -6.375 3.21875 -7.1875 Z M 3.21875 -7.1875 "/></g></g></g></svg>